<?xml version="1.0" standalone="no"?>
<!DOCTYPE svg PUBLIC "-//W3C//DTD SVG 20010904//EN"
 "http://www.w3.org/TR/2001/REC-SVG-20010904/DTD/svg10.dtd">
<svg version="1.0" xmlns="http://www.w3.org/2000/svg"
 width="700.000000pt" height="700.000000pt" viewBox="0 0 700.000000 700.000000"
 preserveAspectRatio="xMidYMid meet">
<metadata>
Created by potrace 1.11, written by Peter Selinger 2001-2013
</metadata>
<g transform="translate(0.000000,700.000000) scale(0.100000,-0.100000)"
fill="#000000" stroke="none">
<path d="M1085 6830 c-4 -6 -11 -7 -17 -4 -7 5 -9 1 -5 -9 3 -9 2 -19 -4 -22
-5 -4 -9 -3 -8 2 3 20 -2 34 -11 28 -6 -4 -8 -10 -5 -15 3 -5 0 -12 -6 -16 -8
-4 -9 -3 -5 4 9 14 -4 15 -24 2 -10 -6 -11 -10 -2 -10 6 0 12 -5 12 -11 0 -6
-7 -8 -16 -5 -12 5 -15 2 -10 -10 4 -11 2 -15 -8 -11 -8 3 -20 -1 -27 -9 -7
-8 -8 -14 -3 -12 5 2 10 -1 11 -6 1 -5 7 -13 15 -17 9 -6 6 -9 -11 -9 -20 0
-23 -4 -19 -30 3 -17 0 -34 -5 -37 -6 -3 -7 -1 -3 5 3 6 2 13 -3 16 -5 4 -8
-2 -6 -11 2 -10 4 -18 5 -18 1 0 3 -8 5 -17 2 -10 -2 -16 -7 -15 -6 1 -13 -4
-15 -10 -3 -7 0 -13 7 -13 6 0 8 -5 5 -10 -4 -6 -11 -7 -17 -4 -6 4 -8 2 -4
-4 3 -5 1 -12 -6 -14 -7 -3 -5 -7 6 -11 11 -5 15 -3 10 5 -4 7 -3 8 5 4 9 -6
9 -11 0 -22 -14 -17 -23 -19 -13 -2 4 6 3 8 -4 5 -5 -4 -8 -17 -4 -29 4 -16 2
-19 -8 -13 -9 5 -11 4 -6 -4 4 -6 11 -9 16 -6 5 3 12 1 15 -5 4 -6 1 -9 -6 -8
-6 2 -14 -3 -17 -11 -3 -9 0 -11 8 -6 9 5 11 4 6 -3 -4 -7 -15 -12 -24 -13
-11 -1 -8 -4 8 -9 16 -5 19 -8 8 -9 -11 -1 -15 -6 -12 -16 4 -8 0 -23 -7 -32
-10 -12 -10 -15 -1 -9 12 7 18 -7 12 -29 -2 -5 -2 -20 -2 -32 1 -16 -4 -23
-16 -24 -13 0 -12 -2 6 -9 21 -9 31 -21 15 -19 -37 6 -53 -28 -20 -41 18 -7
19 -9 4 -9 -14 -1 -17 -6 -12 -22 4 -12 3 -19 -2 -16 -5 3 -9 -21 -9 -54 0
-56 7 -72 21 -49 3 6 1 10 -4 10 -6 0 -11 5 -11 11 0 8 5 8 15 -1 12 -10 13
-16 3 -27 -9 -11 -9 -17 3 -24 10 -8 8 -9 -8 -4 -13 3 -23 2 -23 -3 0 -5 10
-14 23 -21 12 -6 15 -10 7 -8 -11 3 -15 -5 -16 -37 -1 -22 -3 -45 -4 -51 -6
-26 1 -56 12 -49 7 4 8 3 4 -5 -4 -6 -12 -9 -17 -6 -5 4 -9 1 -9 -4 0 -6 5
-11 10 -11 6 0 10 -5 10 -11 0 -5 -4 -8 -8 -5 -5 3 -8 -5 -7 -17 1 -14 8 -21
18 -21 9 1 14 -3 11 -8 -3 -5 -12 -7 -19 -4 -7 2 -16 -1 -19 -9 -3 -9 0 -12 8
-9 7 3 13 -2 13 -10 0 -8 -4 -13 -9 -10 -4 3 -8 0 -8 -5 0 -6 5 -11 11 -11 8
0 7 -6 -2 -17 -11 -13 -12 -17 -1 -21 10 -3 9 -9 -5 -24 -13 -15 -14 -19 -3
-16 8 2 18 7 21 11 3 5 9 1 13 -9 4 -10 4 -15 0 -12 -3 4 -13 0 -22 -9 -15
-14 -14 -17 8 -36 16 -13 19 -18 8 -14 -21 7 -23 -3 -5 -22 10 -11 9 -13 -3
-9 -12 4 -16 -1 -15 -23 0 -24 3 -28 20 -23 15 4 17 3 6 -4 -10 -7 -14 -30
-12 -82 2 -57 -1 -70 -11 -64 -10 6 -10 4 1 -9 15 -19 26 -23 15 -5 -4 7 -3 8
5 4 8 -6 9 -12 2 -20 -6 -7 -7 -17 -3 -22 4 -4 -1 -2 -11 5 -15 12 -17 12 -11
-3 3 -9 12 -16 20 -16 8 0 14 -5 14 -11 0 -5 -5 -7 -11 -4 -6 4 -5 -3 3 -14
11 -18 11 -23 0 -30 -11 -7 -11 -9 1 -14 10 -4 13 -13 10 -28 -5 -17 -3 -20 8
-14 11 6 12 5 2 -6 -7 -7 -13 -24 -13 -37 0 -15 -4 -21 -12 -16 -7 4 -8 3 -4
-5 4 -6 12 -8 18 -5 6 4 8 -1 3 -16 -6 -17 -4 -21 6 -14 10 6 10 3 -1 -11 -14
-17 -13 -18 2 -12 13 4 16 2 11 -11 -3 -9 -10 -22 -15 -29 -6 -7 -4 -14 3 -19
8 -5 9 -3 4 6 -5 9 -4 11 3 6 9 -5 9 -13 2 -26 -13 -24 -13 -40 0 -20 9 13 10
13 10 -1 0 -8 -5 -20 -12 -27 -9 -9 -6 -11 13 -7 20 4 22 2 9 -8 -18 -15 -23
-50 -6 -44 7 3 13 -5 14 -20 1 -13 -2 -22 -6 -19 -7 4 -8 -33 -2 -41 4 -5 7
-22 9 -40 1 -15 3 -15 17 3 15 18 15 18 5 -2 -6 -12 -7 -24 -3 -28 3 -4 2 -10
-4 -14 -10 -7 -104 -194 -149 -297 -103 -233 -202 -567 -240 -805 -3 -19 -10
-60 -15 -90 -5 -30 -12 -82 -15 -115 -3 -33 -8 -69 -10 -80 -2 -11 -7 -65 -11
-120 -3 -55 -10 -101 -15 -103 -5 -2 -19 -13 -31 -24 l-23 -19 33 5 32 6 -4
-53 c-3 -28 -5 -59 -5 -68 -1 -10 -26 -30 -63 -49 -72 -37 -207 -125 -257
-168 -61 -51 -18 -42 63 13 44 30 119 75 167 100 l89 46 1 -28 c1 -15 2 -58 4
-94 l3 -67 -41 -18 c-185 -82 -492 -302 -463 -331 3 -3 33 17 68 45 119 94
331 219 417 247 19 6 20 3 37 -155 3 -35 23 -162 29 -190 36 -167 155 -375
328 -575 248 -287 675 -603 1197 -884 81 -44 484 -244 545 -271 11 -5 43 -19
70 -31 320 -141 609 -255 693 -275 56 -13 168 -11 217 4 54 17 326 128 500
205 610 269 1046 509 1455 801 69 49 127 92 130 95 3 4 52 45 110 93 400 327
615 665 646 1013 4 50 9 93 10 98 1 4 2 23 3 42 0 21 6 35 14 35 6 0 64 -26
128 -58 113 -57 259 -151 329 -212 19 -16 38 -30 43 -30 28 0 -23 55 -118 126
-27 21 -51 42 -53 46 -2 4 -8 8 -13 8 -4 0 -39 20 -76 44 -37 24 -106 63 -153
86 -47 23 -87 44 -89 46 -5 5 -2 176 2 181 10 9 231 -116 298 -168 41 -32 49
-35 49 -16 0 24 -186 152 -302 208 l-48 23 0 68 c0 67 5 79 27 57 8 -8 13 -7
18 1 5 7 2 16 -6 21 -8 5 -20 13 -28 18 -9 6 -16 42 -22 102 -17 196 -40 364
-65 481 -7 37 -16 80 -19 95 -2 16 -22 93 -44 173 -68 246 -139 429 -254 655
-40 77 -71 143 -69 148 1 4 -4 7 -11 7 -9 0 -9 2 0 8 10 6 9 14 -3 37 l-15 29
21 -19 c16 -15 20 -16 15 -3 -4 9 -2 19 3 22 6 3 8 15 5 26 -3 11 -9 17 -15
14 -5 -3 -5 -11 2 -19 8 -10 8 -15 -2 -21 -7 -4 -10 -4 -6 1 4 4 3 14 -2 20
-7 8 -4 17 9 29 11 10 17 24 14 32 -3 8 0 21 7 29 13 16 4 39 -12 29 -7 -4 -8
-2 -4 5 4 6 11 9 16 6 5 -3 11 -1 15 5 3 5 -2 10 -12 10 -15 0 -15 2 -3 9 8 6
18 7 23 4 5 -3 1 7 -9 23 -13 20 -14 25 -4 17 13 -9 15 -5 17 28 1 22 -2 37
-6 35 -4 -3 -8 1 -8 9 0 8 5 11 10 8 5 -3 7 0 5 8 -3 8 -12 13 -19 11 -9 -2
-7 4 5 17 10 11 19 32 19 45 0 16 4 24 11 20 6 -3 1 3 -11 12 -13 9 -23 22
-23 28 0 6 5 4 10 -4 9 -13 10 -13 10 0 0 12 2 12 9 1 6 -9 9 -5 9 14 -1 16
-4 22 -8 15 -5 -7 -9 -2 -12 14 -4 20 -2 24 7 16 6 -5 15 -7 18 -3 4 3 -1 12
-11 19 -14 10 -15 15 -4 26 11 11 12 10 6 -7 -4 -11 -4 -17 0 -13 12 11 14 58
2 58 -6 0 -4 5 4 10 13 8 12 10 -2 10 -11 0 -18 7 -18 18 0 15 2 15 11 2 9
-12 10 -11 6 8 -3 13 0 22 6 22 7 0 5 5 -3 10 -13 9 -13 10 0 10 12 0 12 2 1
9 -7 5 -9 11 -4 14 12 8 11 47 -2 66 -5 10 -4 16 4 19 8 3 6 8 -6 18 -13 10
-14 13 -2 9 11 -4 15 1 15 19 0 14 -4 22 -8 20 -4 -3 -8 0 -8 5 0 6 5 11 10
11 6 0 10 5 10 11 0 5 -6 7 -12 3 -10 -6 -10 -5 -1 7 10 12 10 18 0 29 -10 10
-9 12 6 7 11 -4 16 -3 12 3 -4 6 -8 22 -11 36 -3 19 -1 24 8 18 10 -6 10 -4 2
7 -5 8 -10 28 -9 44 1 17 -4 33 -9 37 -7 5 -6 8 3 8 11 0 9 4 -5 15 -10 9 -13
14 -5 13 7 -2 15 5 16 15 4 19 -11 23 -18 5 -4 -10 -6 -10 -6 0 -1 7 6 15 14
18 14 6 13 8 -2 21 -10 8 -13 12 -6 9 6 -4 14 -2 18 4 3 5 0 10 -7 10 -9 0 -9
3 2 10 13 9 13 10 0 10 -9 0 -11 3 -5 8 11 8 14 93 3 85 -5 -2 -8 1 -8 6 0 6
4 11 9 11 10 0 9 19 -1 35 -4 6 -5 23 -4 38 2 16 -1 24 -7 20 -6 -4 -7 -1 -1
8 4 8 10 23 11 34 2 14 1 16 -6 7 -6 -10 -10 -7 -13 12 -3 14 -1 26 3 26 5 0
9 -4 9 -10 0 -5 5 -10 12 -10 7 0 6 6 -4 18 -20 22 -29 60 -17 68 6 3 3 16 -6
31 -10 14 -12 22 -6 19 6 -4 11 0 11 9 0 9 -4 14 -8 11 -7 -4 -12 15 -14 54 0
8 -7 22 -15 32 -10 11 -11 18 -4 23 6 3 11 11 11 16 0 6 -5 7 -12 3 -7 -4 -8
-3 -4 4 4 6 13 9 20 6 8 -3 17 0 22 7 4 8 3 10 -4 5 -7 -4 -20 -2 -29 3 -17
10 -16 10 2 11 19 1 19 2 1 9 -11 4 -20 17 -21 29 -1 17 1 19 12 10 11 -8 12
-7 7 6 -3 9 -10 16 -16 16 -5 0 -6 5 -3 10 3 6 2 10 -4 10 -5 0 -11 -6 -14
-12 -3 -7 -3 6 -2 30 2 23 -1 42 -6 42 -5 0 -9 5 -9 11 0 5 5 7 11 3 8 -4 8 0
0 15 -7 11 -17 21 -24 20 -9 0 -9 -2 1 -6 6 -2 12 -9 12 -15 0 -6 -9 -3 -20 7
-19 17 -19 19 -2 31 14 11 12 12 -18 4 -30 -8 -33 -8 -17 4 16 12 15 14 -10
14 -16 0 -34 -5 -42 -12 -12 -9 -12 -8 -3 9 9 17 7 21 -8 21 -12 0 -16 -5 -12
-16 5 -12 3 -13 -9 -3 -19 15 -55 9 -79 -12 -15 -14 -18 -14 -23 -1 -4 10 -1
13 9 9 7 -3 14 -1 14 4 0 5 -11 9 -25 9 -19 0 -22 -3 -13 -13 13 -16 -12 -19
-28 -3 -7 7 -11 6 -11 -4 0 -8 3 -13 7 -11 3 2 12 -1 20 -6 11 -7 8 -8 -12 -5
-15 2 -29 1 -31 -2 -2 -4 -2 -2 -1 5 2 7 -1 15 -7 18 -5 4 -8 1 -7 -7 2 -7 -5
-13 -14 -13 -10 0 -25 -9 -33 -20 -9 -11 -14 -14 -10 -7 3 6 1 12 -4 12 -6 0
-11 -6 -11 -12 0 -9 -4 -8 -10 2 -8 13 -10 12 -10 -4 0 -16 -2 -17 -17 -5 -15
13 -15 12 -4 -10 10 -18 10 -22 1 -16 -7 4 -17 1 -22 -6 -6 -10 -7 -6 -3 11 6
24 5 24 -9 6 -9 -11 -16 -16 -16 -12 0 5 -6 3 -13 -3 -8 -6 -18 -7 -22 -3 -5
4 -4 1 0 -7 6 -11 4 -13 -7 -8 -12 4 -15 0 -11 -16 5 -21 5 -21 -9 -3 -13 17
-16 17 -24 4 -5 -9 -18 -18 -29 -20 -11 -2 -19 -9 -18 -15 1 -6 -6 -9 -17 -6
-12 3 -20 0 -20 -6 0 -7 6 -9 13 -5 6 4 8 3 4 -1 -10 -11 -34 -17 -73 -19 -27
-1 -31 -5 -29 -23 2 -24 -10 -31 -18 -10 -3 8 -15 1 -31 -20 -19 -22 -33 -30
-51 -28 -14 1 -25 -2 -25 -7 0 -5 -4 -6 -10 -3 -5 3 -10 -1 -10 -9 0 -8 -5
-18 -12 -22 -8 -5 -9 -2 -4 11 6 16 4 16 -10 4 -10 -8 -18 -12 -20 -9 -1 3 -6
1 -11 -3 -4 -5 -2 -7 6 -5 7 2 15 -2 18 -9 4 -12 -14 -12 -34 0 -6 4 -15 2
-19 -4 -4 -7 -3 -9 3 -6 6 4 13 1 16 -7 4 -10 0 -12 -15 -8 -16 4 -19 2 -13
-9 8 -12 6 -12 -8 0 -15 12 -17 12 -11 -4 6 -15 4 -16 -13 -7 -16 9 -24 6 -44
-12 -13 -12 -28 -23 -34 -23 -12 -2 -24 -35 -17 -47 3 -5 0 -6 -6 -2 -6 4 -9
14 -6 24 5 14 2 13 -11 -3 -12 -16 -17 -17 -24 -6 -6 10 -12 5 -22 -17 -7 -16
-18 -28 -25 -25 -7 2 -15 -1 -20 -8 -5 -8 -3 -10 7 -4 12 8 12 6 0 -8 -11 -13
-17 -15 -28 -6 -11 10 -12 8 -7 -6 6 -15 4 -16 -14 -6 -17 9 -19 8 -15 -9 4
-16 2 -19 -11 -14 -9 3 -16 2 -16 -4 0 -6 6 -13 13 -15 6 -3 -5 -4 -26 -2 -30
2 -36 0 -27 -10 9 -11 6 -12 -12 -8 -18 4 -20 3 -8 -6 12 -9 10 -11 -13 -11
-15 0 -30 -7 -33 -15 -4 -8 -10 -12 -15 -9 -5 3 -6 10 -3 16 4 7 2 8 -4 4 -6
-4 -9 -13 -5 -21 3 -10 -1 -15 -12 -15 -9 0 -13 -4 -10 -10 3 -6 -4 -10 -17
-10 -19 0 -20 -2 -8 -11 12 -8 9 -10 -13 -6 -15 2 -30 0 -34 -6 -3 -6 -1 -7 5
-3 7 4 12 2 12 -3 0 -15 -23 -14 -40 2 -8 6 -6 2 3 -10 14 -16 15 -23 6 -29
-8 -5 -10 -3 -4 6 6 10 4 11 -11 6 -10 -5 -25 -9 -32 -9 -9 0 -9 -4 -2 -11 5
-5 10 -15 10 -20 0 -6 -5 -4 -10 4 -6 10 -10 11 -10 3 0 -7 -5 -13 -11 -13 -5
0 -7 5 -3 12 5 7 3 8 -5 4 -7 -5 -10 -15 -6 -23 5 -14 3 -14 -12 -2 -14 12
-16 12 -8 0 6 -11 4 -13 -7 -8 -12 4 -15 0 -13 -19 2 -24 2 -24 -18 -7 -11 10
-17 12 -13 5 6 -9 1 -11 -19 -8 -22 4 -25 3 -15 -9 14 -17 5 -35 -16 -35 -10
0 -12 -5 -8 -12 6 -10 5 -10 -8 0 -13 10 -18 9 -29 -5 -13 -16 -12 -17 4 -4 9
7 17 9 17 3 0 -14 -28 -23 -35 -12 -3 5 -12 7 -20 4 -8 -3 -45 -1 -82 5 -123
19 -264 26 -568 26 -295 0 -406 -5 -562 -25 -142 -19 -154 -20 -150 -12 2 4
-5 15 -16 25 -19 19 -19 18 -12 -3 5 -15 4 -20 -4 -16 -6 4 -11 14 -11 22 0 8
-7 17 -15 20 -8 4 -12 11 -8 18 4 6 -1 5 -10 -2 -14 -12 -15 -10 -11 15 4 27
4 28 -9 5 -14 -24 -29 -20 -20 6 4 10 2 13 -5 8 -6 -3 -16 2 -22 11 -9 15 -10
14 -5 -7 5 -23 5 -23 -8 -8 -8 10 -18 14 -23 10 -4 -4 -2 1 5 10 11 15 10 17
-9 13 -19 -4 -20 -2 -8 12 9 12 9 15 1 9 -8 -4 -13 -2 -13 4 0 6 -5 8 -10 5
-6 -3 -13 1 -16 9 -9 24 -23 19 -18 -6 3 -14 -1 -9 -10 11 -11 22 -21 31 -31
27 -9 -3 -15 0 -15 10 0 11 -6 15 -20 11 -12 -3 -17 -1 -14 5 3 5 -4 12 -16
15 -16 4 -18 8 -8 14 10 7 9 9 -5 9 -10 0 -16 4 -13 8 2 4 -5 9 -17 9 -17 2
-19 0 -7 -7 8 -5 11 -10 5 -10 -5 1 -19 8 -30 17 -16 12 -16 14 -3 10 10 -3
19 -3 22 1 4 7 -9 11 -51 14 -6 1 -9 7 -6 15 4 9 0 11 -13 6 -13 -5 -15 -3 -9
8 8 12 6 12 -8 0 -9 -7 -17 -9 -17 -4 0 6 -15 21 -34 34 -19 13 -32 28 -28 34
3 5 -2 4 -11 -4 -12 -9 -17 -10 -17 -2 0 7 -4 9 -10 6 -5 -3 -10 -1 -10 5 0 7
7 10 15 7 8 -4 16 -3 19 1 2 4 -5 9 -17 10 -39 4 -56 8 -63 14 -3 4 -11 5 -17
4 -7 -2 -9 -1 -4 1 4 3 7 12 7 21 0 15 -2 15 -10 2 -8 -13 -10 -13 -10 1 0 9
-7 16 -15 16 -8 0 -15 -5 -15 -10 0 -6 -3 -7 -6 -4 -4 4 -1 13 6 22 11 13 10
14 -6 9 -10 -4 -26 -12 -34 -18 -12 -8 -13 -8 -2 4 17 20 15 39 -5 39 -41 1
-52 5 -46 14 4 6 0 8 -10 4 -12 -4 -14 -2 -10 11 6 15 5 16 -12 2 -11 -9 -16
-10 -11 -2 5 8 0 12 -14 12 -17 0 -20 4 -15 23 3 12 3 17 -2 11 -4 -6 -17 -14
-28 -18 -11 -4 -16 -4 -12 0 4 4 1 14 -6 22 -8 11 -8 14 0 9 6 -4 15 -2 19 4
4 7 3 9 -4 5 -6 -3 -15 2 -21 11 -6 10 -11 12 -11 6 0 -7 -5 -13 -11 -13 -5 0
-7 5 -3 12 5 7 3 8 -7 2 -20 -12 -40 -14 -33 -3 3 5 10 6 16 3 6 -4 8 -2 5 4
-4 5 -17 8 -30 5 -18 -4 -19 -3 -7 6 12 9 10 11 -12 11 -16 0 -28 5 -28 10 0
6 -12 10 -27 10 -22 0 -25 2 -13 10 12 8 10 10 -8 10 -16 0 -21 4 -16 13 5 7
0 6 -11 -3 -11 -9 -16 -10 -11 -2 5 8 0 12 -14 12 -12 0 -19 4 -16 9 3 5 -1
12 -10 15 -12 4 -15 2 -10 -9 3 -8 1 -15 -4 -15 -6 0 -10 7 -10 15 0 8 -3 14
-7 13 -5 -2 -8 0 -8 4 0 10 -46 42 -62 44 -7 1 -11 -2 -7 -7 3 -5 10 -6 16 -3
7 4 8 2 4 -4 -13 -21 -41 1 -37 30 0 3 -13 4 -28 2 -20 -3 -35 1 -48 13 -11
12 -32 19 -55 18 -20 0 -34 3 -32 6 2 4 -3 10 -12 13 -9 4 -13 2 -8 -5 3 -6
-5 -3 -19 6 -15 9 -31 14 -36 11 -5 -4 -15 2 -21 11 -10 16 -11 15 -6 -7 4
-22 3 -23 -7 -8 -18 24 -84 29 -71 6 5 -10 3 -10 -7 0 -12 11 -12 14 1 22 9 6
10 10 3 10 -6 0 -15 -5 -18 -10z m270 -70 c-3 -5 -12 -10 -18 -10 -7 0 -6 4 3
10 19 12 23 12 15 0z m80 -29 c3 -5 2 -12 -3 -15 -5 -3 -9 1 -9 9 0 17 3 19
12 6z m4051 -23 c4 -7 3 -8 -4 -4 -7 4 -12 2 -12 -5 0 -7 -3 -10 -6 -6 -6 5 3
27 11 27 2 0 7 -5 11 -12z m-3978 -23 c-3 -3 -9 2 -12 12 -6 14 -5 15 5 6 7
-7 10 -15 7 -18z m3689 -127 c-3 -8 -6 -5 -6 6 -1 11 2 17 5 13 3 -3 4 -12 1
-19z m-3382 -18 c-3 -5 -12 -10 -18 -10 -7 0 -6 4 3 10 19 12 23 12 15 0z
m180 -110 c-3 -5 -12 -10 -18 -10 -7 0 -6 4 3 10 19 12 23 12 15 0z m2954 -13
c0 -8 -2 -8 -6 1 -4 10 -10 9 -27 -5 l-21 -18 19 22 c19 23 37 22 35 0z m-59
-31 c0 -3 -4 -8 -10 -11 -5 -3 -10 -1 -10 4 0 6 5 11 10 11 6 0 10 -2 10 -4z
m1161 -23 c13 -16 12 -17 -3 -4 -17 13 -22 21 -14 21 2 0 10 -8 17 -17z
m-1249 -25 c-7 -7 -12 -8 -12 -2 0 14 12 26 19 19 2 -3 -1 -11 -7 -17z m1248
-98 c0 -5 -2 -10 -4 -10 -3 0 -8 5 -11 10 -3 6 -1 10 4 10 6 0 11 -4 11 -10z
m-5170 -30 c0 -5 -5 -10 -11 -10 -5 0 -7 5 -4 10 3 6 8 10 11 10 2 0 4 -4 4
-10z m0 -90 c0 -5 -4 -10 -10 -10 -5 0 -10 5 -10 10 0 6 5 10 10 10 6 0 10 -4
10 -10z m5190 0 c0 -5 -2 -10 -4 -10 -3 0 -8 5 -11 10 -3 6 -1 10 4 10 6 0 11
-4 11 -10z m-5183 -26 c-3 -3 -12 -4 -19 -1 -8 3 -5 6 6 6 11 1 17 -2 13 -5z
m3378 -112 c-3 -3 -11 0 -18 7 -9 10 -8 11 6 5 10 -3 15 -9 12 -12z m1780
-950 c-3 -3 -11 0 -18 7 -9 10 -8 11 6 5 10 -3 15 -9 12 -12z m-5095 -262 c0
-5 -5 -10 -11 -10 -5 0 -7 5 -4 10 3 6 8 10 11 10 2 0 4 -4 4 -10z"/>
<path d="M1390 6756 c7 -7 13 -7 20 0 6 6 3 10 -10 10 -13 0 -16 -4 -10 -10z"/>
<path d="M1536 6693 c-6 -14 -5 -15 5 -6 7 7 10 15 7 18 -3 3 -9 -2 -12 -12z"/>
<path d="M5279 6633 c-13 -16 -12 -17 4 -4 9 7 17 15 17 17 0 8 -8 3 -21 -13z"/>
<path d="M5115 6561 c-3 -5 -2 -12 3 -15 5 -3 9 1 9 9 0 17 -3 19 -12 6z"/>
<path d="M5150 6560 c-8 -5 -12 -12 -9 -15 4 -3 12 1 19 10 14 17 11 19 -10 5z"/>
<path d="M6026 6521 c-7 -11 22 -36 31 -27 3 3 1 6 -6 6 -8 0 -11 7 -7 15 6
16 -9 21 -18 6z"/>
<path d="M866 6318 c3 -5 10 -6 15 -3 13 9 11 12 -6 12 -8 0 -12 -4 -9 -9z"/>
<path d="M2230 6298 c0 -4 4 -8 9 -8 6 0 12 4 15 8 3 5 -1 9 -9 9 -8 0 -15 -4
-15 -9z"/>
<path d="M4635 6260 c3 -5 8 -10 11 -10 2 0 4 5 4 10 0 6 -5 10 -11 10 -5 0
-7 -4 -4 -10z"/>
<path d="M4196 5982 c-3 -4 4 -9 15 -9 23 -2 25 3 4 10 -8 4 -16 3 -19 -1z"/>
<path d="M6058 5123 c7 -3 16 -2 19 1 4 3 -2 6 -13 5 -11 0 -14 -3 -6 -6z"/>
</g>
</svg>
